<?xml version="1.0" encoding="iso-8859-1"?>
<!-- Generator: Adobe Illustrator 19.1.0, SVG Export Plug-In . SVG Version: 6.00 Build 0)  -->
<svg xmlns="http://www.w3.org/2000/svg" xmlns:xlink="http://www.w3.org/1999/xlink" version="1.1" id="Capa_1" x="0px" y="0px" viewBox="0 0 485.998 485.998" style="enable-background:new 0 0 485.998 485.998;" xml:space="preserve" width="512px" height="512px">
<g>
	<g>
		<path d="M186.8,236.719L186.8,236.719c0.2,0,0.4,0,0.6,0c0.2,0,0.4,0,0.6,0l0,0c102.6-1.1,87.7-138,87.7-138    c-4.2-91.5-80.7-90.7-88.3-90.4c-7.5-0.3-84.1-1.1-88.3,90.4C99.1,98.719,84.2,235.719,186.8,236.719z" fill="#878787"/>
		<path d="M253.7,262.318l-35.6,112.5l-20.8-59c36.5-50.9-2.6-53.5-9.5-53.5l0,0c-0.1,0-0.2,0-0.2,0c-0.1,0-0.2,0-0.2,0l0,0    c-7,0.1-46,2.6-9.5,53.5l-20.8,59l-35.6-112.5c0,0-44.7,21.7-84.7,46.8c-30.2,19-35.8,39.4-36.7,68.9l-0.1,99.7h187.8H247    c-0.7-2.4-1.1-5-1.1-7.6v-92.2c0-15.5,12.6-28.1,28.1-28.1h34.7c2.6,0,5,0.4,7.4,1v-14.5c0-13.5,9.5-24.7,22.2-27.4    C298.3,283.918,253.7,262.318,253.7,262.318z" fill="#878787"/>
		<path d="M308.6,370.418h-34.7c-4.1,0-7.5,3.4-7.5,7.5v14.4v63.4v14.4c0,4.1,3.4,7.5,7.5,7.5h34.7c4.1,0,7.5-3.4,7.5-7.5v-14.4    v-63.4v-14.4C316.1,373.818,312.8,370.418,308.6,370.418z" fill="#878787"/>
		<path d="M378.8,328.918h-34.7c-4.1,0-7.5,3.3-7.5,7.5v55.9v21.9v55.9c0,4.1,3.4,7.5,7.5,7.5h34.7c4.1,0,7.5-3.4,7.5-7.5v-55.9    v-21.9v-55.9C386.2,332.318,382.9,328.918,378.8,328.918z" fill="#878787"/>
		<path d="M485.1,280.618l-48.8-78.4c-2.2-3.5-7.4-3.5-9.6,0l-48.8,78.4c-2.3,3.8,0.4,8.6,4.8,8.6h24v180.8c0,4.1,3.4,7.5,7.5,7.5    h34.7c4,0,7.2-3.1,7.4-7h0.1v-119.5v-3.4v-58.4h24C484.8,289.318,487.5,284.418,485.1,280.618z" fill="#878787"/>
	</g>
</g>
<g>
</g>
<g>
</g>
<g>
</g>
<g>
</g>
<g>
</g>
<g>
</g>
<g>
</g>
<g>
</g>
<g>
</g>
<g>
</g>
<g>
</g>
<g>
</g>
<g>
</g>
<g>
</g>
<g>
</g>
</svg>
