<?xml version="1.0" encoding="iso-8859-1"?>
<!-- Generator: Adobe Illustrator 19.0.0, SVG Export Plug-In . SVG Version: 6.00 Build 0)  -->
<svg xmlns="http://www.w3.org/2000/svg" xmlns:xlink="http://www.w3.org/1999/xlink" version="1.1" id="Capa_1" x="0px" y="0px" viewBox="0 0 512.001 512.001" style="enable-background:new 0 0 512.001 512.001;" xml:space="preserve" width="512px" height="512px">
<g>
	<g>
		<path d="M419.979,332.355c0.208-4.152-2.99-7.685-7.14-7.893c-4.169-0.209-7.683,2.99-7.891,7.141    c-0.925,18.527-11.215,36.625-26.893,48.193c-8.733-19.779-27.932-28.841-43.511-25.142    c-12.089,2.856-21.557,14.599-21.557,26.736c0,18.082,21.5,33.376,54.529,21.112c-0.117,8.39-2.597,16.824-7.015,23.818    c-9.014,14.285-30.308,25.709-47.33,30.073c0.146-22.086-11.166-32.366-25.8-62.146c-11.127-20.58-36.801-28.161-57.297-17.075    c-5.445,2.413-15.037,10.379-31.422,10.379c-17.897,0-34.298-9.769-42.804-25.494L99.885,258.586    c-3.836-7.091-5.864-15.071-5.864-23.073c0-17.897,9.769-34.299,25.494-42.804l8.348-4.515    c20.579-11.129,28.159-36.801,17.074-57.298L125.93,95.752c-19.973-36.929-71.365-39.309-95.148-5.3    C-5.537,142.386-8.35,209.12,20.855,263.118c92.734,170.864,88.357,164.72,96.67,176.956c2.337,3.438,7.016,4.331,10.453,1.996    c3.438-2.336,4.331-7.017,1.996-10.453c-7.569-11.14-2.553-3.649-95.881-175.657c-11.795-21.806-18.029-46.348-18.029-70.969    c0-30.899,9.353-60.606,27.05-85.912c17.455-24.962,55.013-23.094,69.575,3.835l19.008,35.144    c7.167,13.255,2.206,29.76-10.995,36.9l-8.348,4.515c-20.592,11.137-33.384,32.611-33.384,56.042    c0,10.495,2.655,20.95,7.676,30.233l55.962,103.468c16.759,30.986,55.412,42.402,86.276,25.709l8.348-4.515    c13.254-7.167,29.76-2.207,36.9,10.996c15.696,31.272,23.997,38.305,23.997,54.602c0,19.363-14.572,39.933-38.959,40.84    c-42.257,1.56-82.316-14.836-110.927-43.224c-2.95-2.927-7.715-2.908-10.643,0.042c-2.927,2.95-2.908,7.715,0.042,10.642    c32.124,31.872,76.461,49.276,122.087,47.58c24.348-0.905,44.41-17.273,51.082-39.584c22.382-4.164,50.365-18.851,62.415-37.949    c7.19-11.383,10.534-25.6,8.959-39.16C404.088,381.295,418.741,357.176,419.979,332.355z M328.037,381.389    c0-5.527,5.354-12.507,13.593-12.507c8.511,0,18.6,6.461,23.266,18.465C345.69,395.521,328.037,391.509,328.037,381.389z" fill="#FFFFFF"/>
	</g>
</g>
<g>
	<g>
		<path d="M343.982,66.453c-13.399,0-24.3,10.902-24.3,24.3s10.901,24.299,24.3,24.299c13.399,0,24.299-10.901,24.299-24.299    S357.381,66.453,343.982,66.453z M343.982,100.001c-5.1,0-9.249-4.149-9.249-9.248s4.149-9.249,9.249-9.249    c5.1,0,9.249,4.149,9.249,9.249S349.082,100.001,343.982,100.001z" fill="#FFFFFF"/>
	</g>
</g>
<g>
	<g>
		<path d="M373.129,218.911v-80.975c0-5.691-4.631-10.323-10.323-10.323h-36.133c-6.839,0-12.404,5.564-12.404,12.404v13.536    c0,5.765,3.954,10.625,9.293,12.008v53.348c-6.598,0.274-11.883,5.728-11.883,12.394v15.106c0,6.839,5.564,12.404,12.403,12.404    h48.528c6.839,0,12.403-5.564,12.403-12.404v-15.106C385.013,224.638,379.728,219.184,373.129,218.911z M369.963,243.762H326.73    v-9.812h0c6.558-0.03,11.884-5.374,11.884-11.94v-59.164c0-5.674-3.979-10.437-9.293-11.644v-8.538h28.758    c0.249,85.63-0.582,82.271,0.681,85.028c2.923,7.42,10.76,6.14,11.203,6.257V243.762z" fill="#FFFFFF"/>
	</g>
</g>
<g>
	<g>
		<path d="M468.655,159.534c-4.149-0.152-7.643,3.092-7.796,7.245c-3.613,98.662-123.721,144.666-192.582,75.007    c-43.681-44.184-43.41-115.405,0.916-159.222c44.093-43.588,115.322-43.494,159.222,0.918    c15.096,15.267,25.459,34.374,29.973,55.256c0.878,4.062,4.884,6.648,8.945,5.765c4.063-0.878,6.644-4.882,5.766-8.945    C452.089,38.365,330.775,0.525,258.614,71.86c-50.295,49.717-50.516,130.459-1.039,180.507    c49.802,50.38,130.556,50.419,180.507,1.04c23.195-22.93,36.626-53.498,37.819-86.077    C476.051,163.177,472.809,159.686,468.655,159.534z" fill="#FFFFFF"/>
	</g>
</g>
<g>
	<g>
		<path d="M463.985,48.321c-63.446-64.18-166.319-64.23-229.951-1.324c-64.181,63.446-64.229,166.316-1.325,229.951    c38.453,38.903,25.31,65.01,25.31,73.859c0,13.942,15.573,22.412,27.314,14.65c3.434-2.269,6.853-4.64,10.164-7.046    c3.362-2.444,4.107-7.15,1.663-10.512s-7.151-4.106-10.511-1.663c-3.131,2.277-6.366,4.518-9.614,6.665    c-2.022,1.336-4.395-0.551-3.88-2.79c5.906-25.817,0.565-53.07-29.741-83.743c-57.246-57.91-56.887-151.243,1.202-208.667    c57.782-57.122,151.129-57.004,208.666,1.201c57.245,57.91,56.887,151.243-1.201,208.667    c-32.269,31.9-76.415,46.77-120.824,41.619c-6.177-0.714-5.658,3.295-22.053,18.534c-3.043,2.829-3.218,7.59-0.388,10.636    c2.828,3.043,7.589,3.219,10.636,0.388c4.944-4.595,9.642-9.359,14.009-14.2c47.753,4.361,94.658-12.126,129.202-46.273    C526.73,214.935,527.011,112.081,463.985,48.321z" fill="#FFFFFF"/>
	</g>
</g>
<g>
</g>
<g>
</g>
<g>
</g>
<g>
</g>
<g>
</g>
<g>
</g>
<g>
</g>
<g>
</g>
<g>
</g>
<g>
</g>
<g>
</g>
<g>
</g>
<g>
</g>
<g>
</g>
<g>
</g>
</svg>
