<svg enable-background="new 0 0 456 456" height="512" viewBox="0 0 456 456" width="512" xmlns="http://www.w3.org/2000/svg"><g fill="#8a8a8a"><path d="m388.095 184h-8c-4.748.025-9.429 1.119-13.696 3.2l18.976-98.712 10.568-54.976c.835-4.339-2.005-8.533-6.344-9.368-.495-.095-.999-.144-1.504-.144h-192c-4.418 0-8 3.582-8 8 0 .508.048 1.014.144 1.512l10.568 54.976 18.992 98.712c-4.27-2.082-8.954-3.176-13.704-3.2h-42.904c-4.479-.007-8.91.933-13 2.76l-56.096 24.928v-3.688c0-4.418-3.582-8-8-8h-48c-4.418 0-8 3.582-8 8v240c0 4.418 3.582 8 8 8h48c4.418 0 8-3.582 8-8v-8h194.744c46.489.128 91.097-18.349 123.88-51.312 6.024-5.988 9.4-14.138 9.376-22.632v-150.056c0-17.673-14.326-32-32-32zm-312 256h-32v-224h32zm302.32-400-7.12 36.96c-16.03-6.007-27.657-20.084-30.528-36.96zm-172.64 0h37.648c-2.871 16.876-14.498 30.953-30.528 36.96zm10.152 52.8c23.521-7.689 40.502-28.249 43.608-52.8h65.12c3.106 24.551 20.087 45.111 43.608 52.8l-26.064 135.504c-2.834 2.372-6.408 3.68-10.104 3.696h-80c-3.696-.015-7.27-1.323-10.104-3.696zm188.168 151.704c-19.245 18.274-43.675 30.142-69.936 33.976l-67.2 9.6 2.264 15.832 67.2-9.6c24.661-3.606 47.972-13.524 67.672-28.792v18.984c-19.245 18.274-43.675 30.142-69.936 33.976l-67.2 9.6 2.264 15.832 67.2-9.6c24.661-3.606 47.972-13.524 67.672-28.792v18.984c-19.245 18.274-43.675 30.142-69.936 33.976l-67.2 9.6 2.264 15.832 67.2-9.6c24.661-3.606 47.972-13.524 67.672-28.792v20.544c.011 4.245-1.677 8.319-4.688 11.312-29.79 29.952-70.324 46.74-112.568 46.624h-194.744v-194.8l62.608-27.824c2.041-.912 4.252-1.381 6.488-1.376h42.904c8.837 0 16 7.163 16 16 0 17.673 14.327 32 32 32h80c17.673 0 32-14.327 32-32 0-8.837 7.163-16 16-16h8c8.837 0 16 7.163 16 16z"/><path d="m292.095 144c-22.091 0-40 17.909-40 40 .026 22.08 17.92 39.974 40 40 22.091 0 40-17.909 40-40s-17.908-40-40-40zm0 64c-13.255 0-24-10.745-24-24s10.745-24 24-24 24 10.745 24 24-10.745 24-24 24z"/><path d="m330.339 96.001h147.512v16h-147.512z" transform="matrix(.2169 -.9762 .9762 .2169 214.9101 475.913)"/><path d="m228.095 0h-72c-4.418 0-8 3.581-8 8 0 .622.073 1.243.216 1.848l40 168 15.56-3.704-37.648-158.144h61.872z"/></g></svg>